<svg xmlns="http://www.w3.org/2000/svg" viewBox="0 0 20 9" height="9" width="20"><g fill="#fff"><path d="M2.062.001a2.021 2 0 0 0-2.062 1.957v5.085a2.021 2 0 0 0 2.062 1.957h14.02a2.021 2 0 0 0 2.062-1.957v-5.085a2.021 2 0 0 0-2.062-1.957zm0 .783h14.02a1.212 1.2 0 0 1 1.237 1.174v5.085a1.212 1.2 0 0 1-1.237 1.174h-14.02a1.212 1.2 0 0 1-1.237-1.174v-5.085a1.212 1.2 0 0 1 1.237-1.174zM18.97 2.611a1.938 1.918 0 0 1 0 3.389z" opacity=".38"/></g><rect fill="#fff" transform="translate(1.633 1.565)" rx=".799" height="5.87" width="14.694"/></svg>