<svg xmlns="http://www.w3.org/2000/svg" width="14" height="8" viewBox="0 0 14 8"><path d="M12.365 0h.835a.781.781 0 0 1 .8.762v6.476a.781.781 0 0 1-.8.762h-.835a.781.781 0 0 1-.8-.762v-6.476a.781.781 0 0 1 .8-.762z" fill="#fff"/><path d="M8.51 1.714h.835a.781.781 0 0 1 .8.762v4.762a.781.781 0 0 1-.8.762h-.835a.782.782 0 0 1-.8-.762v-4.762a.782.782 0 0 1 .8-.762z" fill="#fff"/><path d="M4.655 3.614h.835a.782.782 0 0 1 .8.762v2.862a.782.782 0 0 1-.8.762h-.835a.781.781 0 0 1-.8-.762v-2.857a.781.781 0 0 1 .8-.762z" fill="#fff"/><path d="M.8 5.143h.835a.781.781 0 0 1 .8.762v1.333a.781.781 0 0 1-.8.762h-.835a.781.781 0 0 1-.8-.762v-1.338a.781.781 0 0 1 .8-.757z" fill="#fff"/></svg>