<svg xmlns="http://www.w3.org/2000/svg" viewBox="0 0 35 35" height="35" width="35"><path fill="#fff" stroke="rgba(0,0,0,0)" d="M17.5 35a17.5 17.5 0 1 1 17.5-17.5 17.5 17.5 0 0 1-17.5 17.5zm-10.541-5.33a28.812 28.812 0 0 1 4.941-.959c1.4-.046 1.809-1.574 1.75-4.45-1.14 0-2.1-3.36-2.1-4.757-.7 0-1.3-2.677-1.294-3.375.008-1.4.244-1.36.594-1.359a16.291 16.291 0 0 1-.35-3.736c0-3.5 2.445-5.856 7-5.9s7 2.393 7 5.9a16.283 16.283 0 0 1-.35 3.735c.35 0 .741-.043.708 1.358-.015.7-.708 3.374-1.408 3.374-.008 1.4-1.4 4.76-2.1 4.762-.009 2.868.35 4.495 1.749 4.493a25.984 25.984 0 0 1 4.943.913 16.1 16.1 0 1 0-21.082 0z"/></svg>