<svg xmlns="http://www.w3.org/2000/svg" width="300" height="609" viewBox="0 0 300 609"><path xmlns="http://www.w3.org/2000/svg" fill-rule="evenodd" d="M46.995 1.138c56.891 0 139.693-.157 196.186-.157 18.487-.164 39.307.193 50.942 20.95 3.519 7.061 4.913 17.241 4.913 22.679 0 8.333.016 75.119.016 82.453.829.203 1.563.121 1.56 1.65-.027 14.518-.031 52.502.041 60.647.012 1.374-.561 1.173-1.613 1.287.001 79.492.156 196.861.156 276.353 0 23.331-.043 50.513-.043 73.844.001 14.273-.245 25.012-3.227 36.954-3.881 9.746-11.026 17.382-20.66 21.326-9.573 3.919-19.958 3.888-35.04 3.892-22.664-.166-44.815-.052-68.431-.052-2.187.039-10.56-.486-20.224-.486-10.698-.057-16.016.522-17.826.522-10.832 0-64.672-.057-75.504-.057-30.215.4-38.464-7.082-44.079-13.116-7.977-8.571-10.703-18.274-10.703-38.109 0-75.826-.008-196.916-.008-272.742 0-24.96.018-51.085.018-74.657 0-.33-1.558-.454-1.558-1.09-.081-11.717-.051-26.234-.051-38.074 0-.35.357-.449 1.589-1.054.02-.762.185-9.318.14-10.267-.062-1.314-1.644-.014-1.644-1.018 0-3.308-.116-36.425-.116-37.574.009-1.818 1.654-.188 1.654-1.52 0-6.158-.034-14.211-.034-17.658-.34-.116-2.007-.45-2.007-1.424 0-3.623.034-13.665.034-18.49 0-2.072 1.656-.803 1.982-1.477V52.5c0-13.891 1.604-24.398 6.857-32.931C15.374 11.35 23.232 5.455 33.848 2.811c4.971-1.433 9.672-1.673 13.147-1.673zM43 17c-3.961 0-13.298 2.035-18.91 9.816-5.347 7.413-4.759 15.857-4.759 21.974 0 59.994-.285 167.31-.285 227.304 0 71.493.454 143.413.454 214.906 0 12.27-.533 34.928-.533 53.614 0 19.481 1.438 27.146 4.533 31.386 7.831 12.331 22.772 10.956 25.982 10.956 41.496 0 157.115.106 198.611.106 18.2.373 22.537-2.037 28.625-8.139 6.983-7.001 6.487-17.533 6.282-39.923v-88.5V62.105c.437-25.064-.375-31.61-6.058-37.164-6.655-6.505-11.223-7.898-25.585-7.899-7.44 0-23.772.016-29.679.016-2.507 0-3.538 1.628-3.538 3.926 0 6.059-4.159 15.133-15.038 15.133-36.201 0-93.616-.048-103.074-.048-10.297 0-14.685-6.771-15.209-13.225-.41-5.063-1.842-5.821-4.623-5.821C67.198 17.023 57.115 17 43 17z"/></svg>
