<svg xmlns="http://www.w3.org/2000/svg" width="24" height="18" viewBox="0 0 24 18"><path d="M9.531 0h10.826a3.7 3.694 0 0 1 3.642 3.75v10.5a3.7 3.694 0 0 1-3.642 3.75h-10.52a4.307 4.3 0 0 1-3.156-1.386l-6.378-6.853a1.152 1.15 0 0 1-.017-1.538l6.022-6.764a4.312 4.305 0 0 1 3.222-1.459z" fill="#E5E5E5"/><path d="M14.529 7.94l-2.795-2.877a.713.712 0 0 0-1.03 0 .768.767 0 0 0 0 1.06l2.795 2.877-2.795 2.877a.768.767 0 0 0 0 1.06.713.712 0 0 0 1.03 0l2.795-2.877 2.795 2.877a.713.712 0 0 0 1.03 0 .768.767 0 0 0 0-1.06l-2.794-2.877 2.795-2.877a.768.767 0 0 0 0-1.06.713.712 0 0 0-1.03 0z" fill="#000"/></svg>