<svg xmlns="http://www.w3.org/2000/svg" viewBox="0 0 100 100"><path fill="#d14eb8" d="M80 100h-60c-11.05 0-20-8.95-20-20v-60c0-11.05 8.95-20 20-20h60c11.05 0 20 8.95 20 20v60c0 11.05-8.95 20-20 20z"/><path fill="#fff" d="M59.41 48.05c-2.66-1.47-5.48-2.59-8.27-3.75-1.62-.67-3.17-1.45-4.54-2.54-2.7-2.15-2.18-5.65.98-7.03.89-.39 1.83-.52 2.78-.57 3.66-.2 7.14.48 10.45 2.07 1.65.8 2.19.54 2.75-1.17.59-1.82 1.08-3.66 1.62-5.49.36-1.23-.08-2.04-1.24-2.56-2.12-.94-4.3-1.61-6.6-1.97-2.99-.46-2.99-.48-3-3.48-.01-4.23-.01-4.23-4.26-4.23-.61 0-1.23-.01-1.84 0-1.98.06-2.32.41-2.38 2.4-.03.89 0 1.79-.01 2.7-.01 2.66-.03 2.61-2.57 3.54-6.15 2.24-9.95 6.43-10.35 13.14-.36 5.94 2.74 9.95 7.62 12.87 3 1.8 6.33 2.86 9.52 4.28 1.24.54 2.43 1.17 3.47 2.04 3.06 2.53 2.5 6.74-1.13 8.33-1.94.85-4 1.06-6.11.8-3.26-.41-6.37-1.26-9.31-2.78-1.72-.89-2.22-.66-2.81 1.2-.5 1.61-.95 3.23-1.4 4.85-.6 2.18-.38 2.7 1.7 3.72 2.66 1.29 5.49 1.94 8.38 2.4 2.26.36 2.33.46 2.36 2.81.01 1.06.01 2.14.03 3.2.01 1.34.66 2.12 2.04 2.15 1.57.03 3.14.03 4.71-.01 1.29-.03 1.94-.73 1.94-2.03 0-1.45.07-2.92.01-4.37-.07-1.48.57-2.24 2-2.63 3.28-.89 6.08-2.66 8.23-5.28 5.98-7.29 3.7-17.93-4.77-22.61z"/></svg>