<svg xmlns="http://www.w3.org/2000/svg" width="120" height="120" viewBox="0 0 120 120"><title>Camera</title><defs><linearGradient x1="50%" y1="0%" x2="50%" y2="100%" id="a"><stop stop-color="#E3E2E4" offset="0%"/><stop stop-color="#9DA0A4" offset="100%"/></linearGradient><linearGradient x1="50%" y1="-124.2%" x2="46.471%" y2="207.672%" id="b"><stop stop-color="#E3E2E4" offset="0%"/><stop stop-color="#9DA0A4" offset="100%"/></linearGradient></defs><g fill="none"><rect fill="url(#a)" width="120" height="120" rx="28"/><path d="M21.179 36.1h76.641c2.86 0 5.179 2.049 5.179 4.576v44.848c0 2.527-2.319 4.576-5.179 4.576h-76.64c-2.86 0-5.179-2.049-5.179-4.576v-44.848c0-2.527 2.319-4.576 5.179-4.576zm12.818-.055c11.673.09 5.906-9.945 18.003-9.945h8v10l-26.003-.055zm52.006 0l-26.003.055v-10h8c12.097 0 6.329 10.034 18.003 9.945zm-59.003-5.945h6a1 1 0 0 1 1 1v2a1 1 0 0 1-1 1h-6a1 1 0 0 1-1-1v-2a1 1 0 0 1 1-1z" fill="#2F2E32"/><g transform="translate(41 43)"><path d="M18.5 35c8.56 0 15.5-6.94 15.5-15.5 0-8.56-6.94-15.5-15.5-15.5-8.56 0-15.5 6.94-15.5 15.5 0 8.56 6.94 15.5 15.5 15.5zm0 3c-10.217 0-18.5-8.283-18.5-18.5s8.283-18.5 18.5-18.5 18.5 8.283 18.5 18.5-8.283 18.5-18.5 18.5z" fill="url(#b)" fill-rule="nonzero"/><circle fill="#FFD433" cx="40.5" cy="2.5" r="2.5"/></g></g></svg>