<svg xmlns="http://www.w3.org/2000/svg" viewBox="0 0 100 100"><path d="M20 0h60c11.083 0 20 8.917 20 20v60c0 11.083-8.917 20-20 20h-60c-11.083 0-20-8.917-20-20v-60c0-11.083 8.917-20 20-20z" fill="#fff"/><path d="M50 19.5c-16.84 0-30.5 13.66-30.5 30.5s13.66 30.5 30.5 30.5 30.5-13.66 30.5-30.5-13.66-30.5-30.5-30.5zm0 7.63c9.93 0 18.31 6.39 21.48 15.25h-42.96c3.17-8.86 11.55-15.25 21.48-15.25zm0 26.69c-2.11 0-3.81-1.71-3.81-3.81s1.71-3.81 3.81-3.81 3.81 1.71 3.81 3.81-1.7 3.81-3.81 3.81zm-22.88-3.81c10.42 0 18.86 10.04 19.03 22.49-10.78-1.85-19.03-11.2-19.03-22.49zm26.72 22.48c.18-12.45 8.61-22.49 19.03-22.49.01 11.3-8.24 20.65-19.03 22.49z" fill="#4d7fd6"/></svg>