<?xml version="1.0" encoding="UTF-8" standalone="no"?>
<svg
   xmlns:dc="http://purl.org/dc/elements/1.1/"
   xmlns:cc="http://creativecommons.org/ns#"
   xmlns:rdf="http://www.w3.org/1999/02/22-rdf-syntax-ns#"
   xmlns:svg="http://www.w3.org/2000/svg"
   xmlns="http://www.w3.org/2000/svg"
   xmlns:xlink="http://www.w3.org/1999/xlink"
   height="90"
   width="90"
   xml:space="preserve"
   viewBox="0 0 90 90"
   version="1.1"
   id="Layer_1"><metadata
     id="metadata40"><rdf:RDF><cc:Work
         rdf:about=""><dc:format>image/svg+xml</dc:format><dc:type
           rdf:resource="http://purl.org/dc/dcmitype/StillImage" /><dc:title></dc:title></cc:Work></rdf:RDF></metadata><defs
     id="defs38" /><style
     id="style2"
     type="text/css">
	.st0{fill:#FFFFFF;}
	.st1{fill:url(#Oval_1_);}
	.st2{fill:#FF1414;}
	.st3{clip-path:url(#SVGID_3_);}
	.st4{clip-path:url(#SVGID_4_);fill:#FF1414;}
</style><g
     transform="translate(-5,-5)"
     id="Symbols_9_"><g
       id="Graphics-_x2F_-App-Icons-_x2F_-Safari"><g
         id="Safari-Icon"><path
           style="fill:#ffffff"
           id="Background_10_"
           d="m 63.6,5 c 9,0 13.5,0 18.4,1.5 5.3,1.9 9.5,6.1 11.4,11.4 1.6,4.9 1.6,9.5 1.6,18.5 v 27.2 c 0,9 0,13.5 -1.5,18.4 -1.9,5.3 -6.1,9.5 -11.4,11.4 C 77.1,95 72.6,95 63.6,95 H 36.4 C 27.4,95 22.9,95 18,93.5 12.6,91.5 8.5,87.4 6.5,82 5,77.2 5,72.7 5,63.6 V 36.4 C 5,27.4 5,22.9 6.5,18 8.5,12.7 12.6,8.5 18,6.6 22.8,5 27.3,5 36.4,5 Z"
           class="st0" /><linearGradient
           y2="-422.63461"
           y1="-424.13461"
           x2="-546.38458"
           x1="-546.38458"
           id="Oval_1_"
           gradientUnits="userSpaceOnUse"
           gradientTransform="matrix(52,0,0,52,28462,22066)"><stop
             id="stop5"
             style="stop-color:#23D9FD"
             offset="0" /><stop
             id="stop7"
             style="stop-color:#1F63F0"
             offset="1" /></linearGradient><circle
           style="fill:url(#Oval_1_)"
           r="39"
           id="Oval_4_"
           cy="50"
           cx="50"
           class="st1" /><path
           style="fill:#ffffff"
           id="Scale"
           d="M 49.2,14 H 50 v 6.7 h -0.7 z m 6.3,0.5 0.7,0.1 -1.2,6.6 -0.7,-0.1 z m 6.1,1.6 0.7,0.3 -2.3,6.3 -0.7,-0.3 z m 5.7,2.6 0.6,0.4 -3.4,5.8 -0.6,-0.4 z m 5.2,3.5 0.6,0.5 -4.3,5.2 -0.6,-0.5 z m 4.4,4.4 0.5,0.6 -5.2,4.3 -0.5,-0.6 z m 3.7,5.1 0.4,0.6 -5.8,3.4 -0.4,-0.6 z m 2.7,5.7 0.3,0.7 -6.3,2.3 -0.3,-0.7 z m 1.7,6 0.1,0.7 -6.6,1.2 -0.1,-0.7 z m 0.6,6.2 v 0.7 h -6.7 v -0.7 z m -0.5,6.3 -0.1,0.7 -6.6,-1.2 0.1,-0.7 z M 83.6,62 83.3,62.7 77,60.4 77.3,59.7 Z M 81,67.7 80.6,68.3 74.7,65 75.1,64.4 Z m -3.6,5.2 -0.5,0.6 -5.2,-4.3 0.5,-0.6 z m -4.4,4.4 -0.6,0.5 -4.3,-5.2 0.6,-0.5 z m -5.1,3.7 -0.6,0.4 -3.4,-5.8 0.6,-0.4 z M 62.3,83.7 61.6,84 59.3,77.7 60,77.4 Z m -6.1,1.7 -0.7,0.1 -1.2,-6.6 0.7,-0.1 z M 50,86 H 49.3 V 79.3 H 50 Z m -6.3,-0.5 -0.7,-0.1 1.2,-6.6 0.7,0.1 z M 37.7,84 37,83.7 39.3,77.4 40,77.7 Z m -5.8,-2.6 -0.6,-0.4 3.4,-5.8 0.6,0.4 z m -5.1,-3.6 -0.6,-0.5 4.3,-5.2 0.6,0.5 z m -4.5,-4.4 -0.5,-0.6 5.2,-4.3 0.5,0.6 z m -3.7,-5.1 -0.4,-0.6 5.8,-3.4 0.4,0.6 z M 15.9,62.7 15.7,62 22,59.7 l 0.3,0.7 z m -1.7,-6.1 -0.1,-0.7 6.6,-1.2 0.1,0.7 z m -0.6,-6.2 v -0.7 h 6.7 v 0.7 z m 0.5,-6.3 0.1,-0.7 6.6,1.2 -0.1,0.7 z m 1.6,-6 0.3,-0.7 6.3,2.3 -0.3,0.7 z m 2.6,-5.8 0.4,-0.6 5.8,3.4 -0.4,0.6 z m 3.5,-5.1 0.5,-0.6 5.2,4.3 -0.5,0.6 z m 4.4,-4.5 0.6,-0.5 4.3,5.2 -0.6,0.5 z m 5.1,-3.7 0.6,-0.4 3.4,5.8 -0.6,0.4 z m 5.6,-2.7 0.7,-0.3 2.3,6.3 -0.7,0.3 z m 6.1,-1.7 0.7,-0.1 1.2,6.6 -0.7,0.1 z"
           class="st0" /><path
           style="fill:#ffffff"
           id="Scale_1_"
           d="m 52.4,14.1 0.7,0.1 -0.3,3.7 H 52 Z m 6.2,1.1 0.7,0.2 -1,3.6 -0.7,-0.2 z m 5.9,2 0.7,0.3 -1.6,3.5 -0.7,-0.3 z m 5.4,3.1 0.6,0.4 -2.2,3.1 -0.6,-0.4 z m 4.9,4 0.5,0.5 -2.7,2.7 -0.5,-0.5 z m 4.1,4.8 0.4,0.6 -3.1,2.2 -0.4,-0.6 z m 3.2,5.4 0.3,0.7 L 79,36.7 78.7,36 Z m 2.2,5.8 0.2,0.7 -3.6,1 -0.2,-0.7 z m 1.1,6.2 0.1,0.7 -3.7,0.3 -0.1,-0.7 z m 0.1,6.3 -0.1,0.7 -3.7,-0.3 0.1,-0.7 z m -1,6.2 -0.2,0.7 -3.6,-1 0.2,-0.7 z M 82.4,64.9 82.1,65.6 78.7,64 79,63.3 Z m -3.1,5.4 -0.4,0.7 -3.1,-2.2 0.4,-0.6 z m -4,4.9 -0.5,0.5 -2.7,-2.7 0.5,-0.5 z m -4.7,4.1 -0.6,0.4 -2.2,-3.1 0.6,-0.4 z m -5.4,3.2 -0.7,0.3 -1.6,-3.4 0.7,-0.3 z m -5.9,2.2 -0.7,0.2 -1,-3.6 0.7,-0.2 z m -6.2,1.1 -0.7,0.1 -0.4,-3.7 0.7,-0.1 z m -6.3,0.1 -0.7,-0.1 0.3,-3.7 0.7,0.1 z m -6.1,-1 -0.7,-0.2 1,-3.6 0.7,0.2 z m -6,-2.1 -0.7,-0.3 1.6,-3.4 0.7,0.3 z m -5.4,-3.1 -0.6,-0.4 2.2,-3.1 0.6,0.4 z m -4.9,-4 -0.5,-0.5 2.7,-2.7 0.5,0.5 z M 20.3,71 19.9,70.4 23,68.2 l 0.4,0.6 z m -3.1,-5.4 -0.3,-0.7 3.4,-1.6 0.3,0.7 z m -2.3,-5.9 -0.1,-0.7 3.6,-1 0.2,0.7 z m -1.1,-6.2 -0.1,-0.7 3.7,-0.3 0.1,0.7 z m -0.1,-6.2 0.1,-0.7 3.7,0.3 -0.1,0.7 z m 1.1,-6.2 0.2,-0.7 3.6,1 -0.2,0.6 z m 2,-6 0.3,-0.7 3.4,1.6 -0.3,0.7 z m 3.1,-5.4 0.4,-0.6 3.1,2.2 -0.4,0.5 z m 4,-4.9 0.5,-0.5 2.7,2.7 -0.5,0.5 z m 4.8,-4 0.6,-0.4 2.2,3.1 -0.6,0.4 z m 5.4,-3.2 0.7,-0.3 1.6,3.4 -0.8,0.3 z m 5.8,-2.2 0.7,-0.2 1,3.6 -0.7,0.2 z m 6.2,-1.2 0.7,-0.1 0.3,3.7 -0.7,0.1 z"
           class="st0" /><g
           transform="rotate(45,11.921573,59.98833)"
           id="Compass"><g
             id="Arrow_4_"><polyline
               style="fill:#ffffff"
               points="37,26 26.5,26 31.5,64.9 37,26 26.5,26      "
               id="path-2_1_"
               class="st0" /></g><polygon
             style="fill:#ff1414"
             points="26.5,26 31.4,-13 37,26 "
             id="path-2_3_"
             class="st2" /><g
             id="g29"><defs
               id="defs17"><polygon
                 points="37.3,-24.3 37.3,-23.3 36.3,-24.3 "
                 id="SVGID_1_" /></defs><defs
               id="defs20"><polygon
                 points="39.3,-26.3 39.3,-27.3 40.3,-26.3 "
                 id="SVGID_2_" /></defs><clipPath
               id="SVGID_3_"><use
                 height="100%"
                 width="100%"
                 y="0"
                 x="0"
                 id="use22"
                 xlink:href="#SVGID_1_"
                 style="overflow:visible" /></clipPath><clipPath
               clip-path="url(#SVGID_3_)"
               id="SVGID_4_"
               class="st3"><use
                 height="100%"
                 width="100%"
                 y="0"
                 x="0"
                 id="use25"
                 xlink:href="#SVGID_2_"
                 style="overflow:visible" /></clipPath><rect
               style="fill:#ff1414"
               clip-path="url(#SVGID_4_)"
               y="0.5"
               x="12.3"
               width="39"
               transform="rotate(89.999709,31.812264,6.5436972)"
               id="Arrow_3_"
               height="12"
               class="st4" /></g></g></g></g></g></svg>