<?xml version="1.0" encoding="iso-8859-1"?>
<!-- Generator: Adobe Illustrator 19.0.0, SVG Export Plug-In . SVG Version: 6.00 Build 0)  -->
<svg xmlns="http://www.w3.org/2000/svg" xmlns:xlink="http://www.w3.org/1999/xlink" version="1.1" id="Capa_1" x="0px" y="0px" viewBox="0 0 512.008 512.008" style="enable-background:new 0 0 512.008 512.008;" xml:space="preserve" width="512px" height="512px">
<g>
	<g>
		<path d="M341.354,17.104c-2.1-10.1-11.1-17.3-21.4-17.1h-128c-10.3-0.2-19.3,7-21.3,17.1l-17.1,70.4h205.4L341.354,17.104z" fill="#FFFFFF"/>
	</g>
</g>
<g>
	<g>
		<path d="M153.054,424.504l17.5,70.4c2.1,10.1,11,17.3,21.3,17.1h128c10.3,0.2,19.3-7,21.3-17.1l17.1-70.4H153.054z" fill="#FFFFFF"/>
	</g>
</g>
<g>
	<g>
		<path d="M341.254,106.704h-170.6c-35.3,0-64,28.7-64,64v170.7c0,35.3,28.7,64,64,64h170.7c35.3,0,64-28.7,64-64v-170.7    C405.254,135.304,376.654,106.704,341.254,106.704z M191.954,277.304c-11.8,0-21.3-9.6-21.3-21.3c0-11.8,9.6-21.3,21.3-21.3    c11.8,0,21.3,9.6,21.3,21.3C213.254,267.804,203.754,277.304,191.954,277.304z M255.954,277.304c-11.8,0-21.3-9.6-21.3-21.3    c0-11.8,9.6-21.3,21.3-21.3c11.8,0,21.3,9.6,21.3,21.3C277.254,267.804,267.754,277.304,255.954,277.304z M319.954,277.304    c-11.8,0-21.3-9.6-21.3-21.3c0-11.8,9.6-21.3,21.3-21.3c11.8,0,21.3,9.6,21.3,21.3    C341.254,267.804,331.754,277.304,319.954,277.304z" fill="#FFFFFF"/>
	</g>
</g>
<g>
</g>
<g>
</g>
<g>
</g>
<g>
</g>
<g>
</g>
<g>
</g>
<g>
</g>
<g>
</g>
<g>
</g>
<g>
</g>
<g>
</g>
<g>
</g>
<g>
</g>
<g>
</g>
<g>
</g>
</svg>
