<?xml version="1.0"?>
<svg xmlns="http://www.w3.org/2000/svg" viewBox="0 0 512 512.00073" width="512px" height="512px"><path d="m99.710938 497.0625c28.589843 28.59375 81.238281 10.496094 117.617187-7.515625 49.035156-24.285156 104.121094-65.738281 155.105469-116.726563.0625-.058593.121094-.121093.183594-.183593.011718-.011719.027343-.023438.039062-.039063.019531-.015625.035156-.035156.054688-.054687 50.882812-50.929688 92.300781-105.980469 116.652343-155.042969 27.246094-54.90625 29.921875-95.660156 7.726563-117.851562l-84.859375-84.859376s-.003907-.003906-.003907-.003906c-14.445312-14.445312-44.902343-25.636718-107.96875 3.082032-43.992187 20.035156-94.75 55.601562-142.925781 100.148437l-11.453125 10.589844 106.097656 106.097656 10.59375-9.792969c30.578126-28.277344 62.445313-53.050781 92.015626-71.789062-23.203126 37.109375-55.023438 76.410156-92.230469 113.617187-37.140625 37.140625-76.339844 68.882813-113.328125 92.007813 18.78125-29.722656 43.605468-61.679688 71.914062-92.242188l9.808594-10.59375-106.097656-106.097656-10.589844 11.4375c-44.652344 48.210938-80.261719 98.996094-100.273438 143-28.652343 63.003906-17.414062 93.476562-2.945312 107.949219zm188.078124-209.328125c17.550782-17.546875 46.101563-17.550781 63.652344 0 17.527344 17.527344 17.542969 46.035156.058594 63.585937-.035156.035157-.070312.070313-.101562.105469-17.554688 17.503907-46.074219 17.492188-63.605469-.042969-17.59375-17.589843-17.59375-46.058593-.003907-63.648437zm-30.902343-94.554687-63.613281-63.613282c42.304687-37.496094 85.707031-67.21875 123.417968-84.390625 35.386719-16.117187 63.863282-19.628906 74.316406-9.175781 8.035157 8.035156 9.890626 29.996094-6.457031 68.308594-38.472656 18.292968-84.113281 50.082031-127.664062 88.871094zm147.609375-60.542969c11.539062-23.25 18.652344-43.953125 21.355468-61.792969l50.023438 50.023438c9.03125 9.027343 10.253906 35.652343-13.390625 83.296874-15.921875 32.082032-39.78125 67.066407-69.148437 101.75-2.652344-14.441406-9.535157-28.25-20.679688-39.394531-12.628906-12.632812-28.683594-19.792969-45.199219-21.515625 32.722657-38.035156 59.375-76.777344 77.039063-112.367187zm-159.472656 194.851562c1.78125 17.039063 9.269531 32.832031 21.550781 45.113281 11.160156 11.160157 24.992187 18.046876 39.453125 20.6875-34.792969 29.511719-69.878906 53.453126-102.019532 69.367188-39.714843 19.667969-71.550781 24.722656-83.082031 13.191406l-49.96875-49.96875c17.769531-2.683594 38.375-9.746094 61.503907-21.199218 35.625-17.640626 74.445312-44.355469 112.5625-77.191407zm-199.921876-10.816406c17.152344-37.71875 46.914063-81.148437 84.496094-123.480469l63.613282 63.613282c-38.726563 43.433593-70.527344 89.132812-88.886719 127.8125-32.703125 13.863281-58.203125 16.421874-68.261719 6.367187l-.003906-.003906c-10.492188-10.496094-7.027344-38.96875 9.042968-74.308594zm0 0" fill="#FFFFFF"/><path d="m406.480469 211.472656 21.214843 21.214844-21.214843 21.21875-21.214844-21.21875zm0 0" fill="#FFFFFF"/><path d="m233.199219 384.792969 21.21875 21.214843-21.21875 21.214844-21.214844-21.214844zm0 0" fill="#FFFFFF"/><path d="m169.550781 406.007812 21.214844 21.214844-21.214844 21.214844-21.21875-21.214844zm0 0" fill="#FFFFFF"/><path d="m427.6875 147.828125 21.214844 21.214844-21.214844 21.21875-21.214844-21.21875zm0 0" fill="#FFFFFF"/></svg>
