<?xml version="1.0"?>
<svg xmlns="http://www.w3.org/2000/svg" id="Layer_1" enable-background="new 0 0 512 512" height="512px" viewBox="0 0 512 512" width="512px"><path d="m181 0v60h-45c-24.814 0-45 20.186-45 45v62c0 8.276 6.724 15 15 15h105v-30h90v30h105c8.276 0 15-6.724 15-15v-62c0-24.814-20.186-45-45-45h-45v-60zm120 60h-90v-30h90z" fill="#FFFFFF"/><path d="m301 392h-30v-30h-90v60h150v-60h-30z" fill="#FFFFFF"/><path d="m241 182h30v30h-30z" fill="#FFFFFF"/><path d="m181 302h150v30h-150z" fill="#FFFFFF"/><path d="m91 467c0 24.814 20.186 45 45 45h240c24.814 0 45-20.186 45-45v-257.763c-4.715 1.681-9.716 2.763-15 2.763h-105v30h-90v-30h-105c-5.284 0-10.285-1.082-15-2.763zm60-195h210v180h-210z" fill="#FFFFFF"/><path d="m466 272h-15v60h61v-15c0-24.814-21.186-45-46-45z" fill="#FFFFFF"/><path d="m451 362h61v90h-61z" fill="#FFFFFF"/><path d="m61 272h-15c-24.814 0-46 20.186-46 45v15h61z" fill="#FFFFFF"/><path d="m0 362h61v90h-61z" fill="#FFFFFF"/></svg>
