<svg xmlns="http://www.w3.org/2000/svg" width="314.002" height="628.988" viewBox="0 0 314.002 628.988"><path d="M1871.309 562.7l1.344.634a.612.612 0 0 1 .352.553v70.635a.681.681 0 0 1-.4.618l-1.818.835h-2.607v-73.52h2.032a2.566 2.566 0 0 1 1.097.245zM1560.713 605.083l-1.106.632a.744.744 0 0 0-.376.645v43.289a.653.653 0 0 0 .4.6l1.687.708a1.333 1.333 0 0 0 .516.1h3.174v-46.228h-3.34a1.928 1.928 0 0 0-.955.254zM1561.211 546.9l-1.647.9a.612.612 0 0 0-.321.536v43.749a.568.568 0 0 0 .309.5l1.763.915a.95.95 0 0 0 .437.106h1.661v-46.879h-1.538a1.383 1.383 0 0 0-.664.173zM1561 502.746h-.65a.859.859 0 0 0-.6.238l-.505.487a.8.8 0 0 0-.247.575v21.8a.8.8 0 0 0 .247.575l.174.168a.859.859 0 0 0 .6.238h1.65a.828.828 0 0 0 .843-.813v-22.455a.828.828 0 0 0-.843-.813z" fill="#37383c" transform="translate(-1559.004 -417.988)"/><path d="M1871.4 688.956v304.357c0 41-25.25 53.617-53.632 53.617h-82.49a9.255 9.255 0 0 1-2.9-.138l-.739-.24a9.244 9.244 0 0 0-2.854-.451h-25.285a8.925 8.925 0 0 0-2.754.435l-.537.174a10.9 10.9 0 0 1-3.419.22h-82.308c-28.382 0-53.632-12.615-53.632-53.617v-521.713c0-41 25.25-53.617 53.632-53.617h203.288c28.382 0 53.632 12.615 53.632 53.617v19.9z" fill="#26272b" transform="translate(-1559.004 -417.988)"/><path d="M295.132 12.378c-8.768-7.362-21.058-11.094-36.53-11.094h-203.288c-15.472 0-27.762 3.733-36.53 11.094-10.39 8.723-15.657 22.544-15.657 41.078v521.709c0 18.534 5.268 32.355 15.657 41.078 8.768 7.362 21.058 11.094 36.53 11.094h203.288c15.471 0 27.762-3.733 36.53-11.094 10.39-8.723 15.657-22.544 15.657-41.078v-521.709c0-18.534-5.267-32.354-15.657-41.078z" fill="#37383c"/><path d="M292.229 15.773c-8.025-6.738-19.447-10.154-33.948-10.154h-202.324c-14.5 0-25.923 3.416-33.948 10.154-9.439 7.925-14.225 20.711-14.225 38v520.75c0 17.293 4.786 30.079 14.225 38 8.025 6.738 19.446 10.154 33.948 10.154h202.324c14.5 0 25.923-3.416 33.948-10.154 9.439-7.925 14.224-20.711 14.224-38v-520.746c.001-17.293-4.785-30.079-14.224-38.004z" fill="#1e1d21"/><path d="M305.33 575.004c0 16.8-4.593 29.169-13.651 36.775-7.728 6.488-18.8 9.778-32.916 9.778h-203.288c-14.113 0-25.188-3.29-32.916-9.778-9.059-7.606-13.652-19.979-13.652-36.775v-521.708c0-16.8 4.593-29.17 13.652-36.775 7.728-6.488 18.8-9.778 32.916-9.778h203.288c14.114 0 25.188 3.29 32.916 9.778 9.059 7.606 13.651 19.979 13.651 36.775z" fill="#26272b"/><path d="M1580.818 1025.293c-2.192-4.045-6.788-13.7-6.788-33.57v-516.975c0-11.083-.181-25.018 9.788-40.263.533-.854.769-2.161-.077-1.594-.539.4-1.075.814-1.605 1.253a36.717 36.717 0 0 0-10.359 15.107 58.966 58.966 0 0 0-3.542 21.291v523.049c0 17.544 4.689 28.895 13.562 36.429 1.059.829 1.188-.728-.979-4.727zM1851.428 1025.293c2.192-4.045 6.788-13.7 6.788-33.57v-516.975c0-11.083.181-25.018-9.788-40.263-.533-.854-.768-2.161.077-1.594.539.4 1.075.814 1.6 1.253a36.715 36.715 0 0 1 10.359 15.107 58.963 58.963 0 0 1 3.542 21.291v523.049c0 17.544-4.69 28.895-13.562 36.429-1.054.829-1.183-.728.984-4.727z" fill="#37383c" transform="translate(-1559.004 -417.988)"/><path d="M25.682 13.725s-15.172.675-20 18.253c5.768-8.249 10.034-9.084 10.034-9.084s3.88-6.382 9.966-9.169zM25.291 614.174s-15.111-.677-19.916-18.3c5.745 8.272 9.994 9.109 9.994 9.109s3.857 6.396 9.922 9.191zM288.626 13.805s15.111.674 19.916 18.25c-5.745-8.248-9.994-9.083-9.994-9.083s-3.857-6.379-9.922-9.167zM289.017 614.174s15.051-.677 19.836-18.3c-5.722 8.271-9.953 9.107-9.953 9.107s-3.842 6.398-9.883 9.193z" fill="#26272b"/></svg>