<svg id="Capa_1" data-name="Capa 1" xmlns="http://www.w3.org/2000/svg" viewBox="0 0 511.99 394.53"><defs><style>.cls-1{fill:#fff;}</style></defs><title>cap</title><path class="cls-1" d="M336.19,375.22c-98.47,0-183.87-16.52-237.37-46.87C80.4,337.28,22.41,366.2,7.07,384.5,3.92,388.26.24,397.94,0,402.81c-.17,3.8,4.16,14.57,4.16,14.57,130.22,55,203,34.07,275.82,19.72,77.44-15.21,147.66-64.78,147.66-64.78.58-.65,1.28-1.3,1.91-1.92C397.6,373.57,366.27,375.22,336.19,375.22Z" transform="translate(0 -58.74)"/><path class="cls-1" d="M338.27,80.7l-1.1,0c-.91-12.24-15.73-22-34-22C284.29,58.74,269,69.11,269,81.91c0,.21.08.4.08.61-173,18-166,139.09-162.44,204.47a196.77,196.77,0,0,1-1,30.08c70.57,40.19,200.92,54.95,343,37.94C475,336.85,511,319.44,511,319.44s2.22-67.17,0-89.41C499.28,113.24,399.4,86.33,338.27,80.7Z" transform="translate(0 -58.74)"/></svg>