<svg id="Слой_1" data-name="Слой 1" xmlns="http://www.w3.org/2000/svg" viewBox="0 0 512 380.33"><defs><style>.cls-1{fill:#fff;}</style></defs><title>chain</title><path class="cls-1" d="M479.16,93.94V73.5a7.5,7.5,0,0,0-7.5-7.5H438.51a7.5,7.5,0,0,0-7.5,7.5V93.94a57.07,57.07,0,0,0-32.84,51.55V172.7A57.07,57.07,0,0,0,424,220.38a57.08,57.08,0,0,0-25.87,47.68v27.21a56.67,56.67,0,0,0,1.4,12.48,57.23,57.23,0,0,0-11.25-1.14,56.49,56.49,0,0,0-40.38,16.79l-19.17,19.31a56.62,56.62,0,0,0-11.2,16.09,57.07,57.07,0,0,0-48-26.31H242.39a57.07,57.07,0,0,0-48,26.31,56.72,56.72,0,0,0-11.2-16.09l-19.17-19.31a56.49,56.49,0,0,0-40.38-16.79,57.16,57.16,0,0,0-11.25,1.14,56.66,56.66,0,0,0,1.39-12.48V268.06A57.06,57.06,0,0,0,88,220.39a57.08,57.08,0,0,0,25.87-47.68V145.5A57.07,57.07,0,0,0,81,93.95V73.5a7.5,7.5,0,0,0-7.5-7.5H40.34a7.5,7.5,0,0,0-7.5,7.5V93.94A57.07,57.07,0,0,0,0,145.49V172.7a57.07,57.07,0,0,0,25.87,47.68A57.07,57.07,0,0,0,0,268.06v27.21a56.86,56.86,0,0,0,68.15,55.79A56.77,56.77,0,0,0,83.28,403.6l19.17,19.31a56.92,56.92,0,0,0,88.34-9.42h.06a57.07,57.07,0,0,0,51.55,32.84h27.21a57.07,57.07,0,0,0,51.55-32.84h.06a57,57,0,0,0,88.34,9.42l19.17-19.31a56.77,56.77,0,0,0,15.13-52.54A56.86,56.86,0,0,0,512,295.27V268.06a57.08,57.08,0,0,0-25.87-47.68A57.07,57.07,0,0,0,512,172.7V145.49A57.07,57.07,0,0,0,479.16,93.94ZM463.85,268.06v27.21a8.7,8.7,0,0,1-1.16,4.33,23.64,23.64,0,0,0-16.36-10.06V268.06a9.06,9.06,0,0,1,.05-.93,24,24,0,0,0,17.42,0A8.07,8.07,0,0,1,463.85,268.06Zm-49.66,84.59c-3.81,3.55-9.64,4.13-13.41.09a9.28,9.28,0,0,1,.45-12.83l35.55-33.18a9.16,9.16,0,0,1,12.83.44,9.29,9.29,0,0,1-.45,12.83Zm-63,39.76a9.32,9.32,0,0,1-8.54,6.09H293.91a9.07,9.07,0,0,1,.14-18.15h48.63a9.2,9.2,0,0,1,9.08,9.08A8.66,8.66,0,0,1,351.21,392.41Zm-126.49,3a9.12,9.12,0,0,1-6.63,3.13H169.32a9.08,9.08,0,1,1,0-18.15h48.63a9.19,9.19,0,0,1,9.08,9.07A9,9,0,0,1,224.72,395.36Zm-124.65-41c-.6-.33-37.23-34.38-37.23-34.38l0,0a9.07,9.07,0,0,1,12.41-13.25l35.55,33.18.06.06a9.2,9.2,0,0,1,.39,12.77A9.39,9.39,0,0,1,100.07,354.39ZM56.91,146.2a23.94,23.94,0,0,0,8.71-1.64,9.13,9.13,0,0,1,.05.93v27.21a9.13,9.13,0,0,1-.05.93,24,24,0,0,0-17.42,0,9.13,9.13,0,0,1-.05-.93V145.49a9.19,9.19,0,0,1,.05-.93A24,24,0,0,0,56.91,146.2Zm9,99.42a9.32,9.32,0,0,1-9,8.15,9.2,9.2,0,0,1-9.07-9.08V196.07a9.08,9.08,0,1,1,18.15,0V244.7A8.05,8.05,0,0,1,65.94,245.62ZM48.15,295.27s0-27.83.05-28.14a24,24,0,0,0,17.42,0c0,.3.05,22.4.05,22.4a24.19,24.19,0,0,0-14.25,7.41,23.77,23.77,0,0,0-2.11,2.66A8.7,8.7,0,0,1,48.15,295.27Zm74,67.7a23.92,23.92,0,0,0,4.77-7.59,8.7,8.7,0,0,1,2.93,1.94L149,376.56a23.9,23.9,0,0,0-3.74,12.86c0,.6,0,1.19.07,1.78a8.8,8.8,0,0,1-2.5.37,8.65,8.65,0,0,1-6.19-2.57l-19.17-19.31a8.8,8.8,0,0,1-1.45-1.95A24,24,0,0,0,122.19,363Zm118.27,17.9a8.64,8.64,0,0,1,1.94-.22h27.21a8.81,8.81,0,0,1,1.93.22,24.07,24.07,0,0,0,0,17.08,8.58,8.58,0,0,1-1.93.22H242.39a8.88,8.88,0,0,1-1.94-.22,24,24,0,0,0,0-17.08ZM363,376.56l19.09-19.23a8.59,8.59,0,0,1,2.93-1.94A23.77,23.77,0,0,0,396,367.73a8.8,8.8,0,0,1-1.45,1.95L375.37,389a8.66,8.66,0,0,1-6.19,2.57,8.8,8.8,0,0,1-2.5-.36c0-.59.07-1.18.07-1.78A23.9,23.9,0,0,0,363,376.56ZM455.09,146.2a23.89,23.89,0,0,0,8.71-1.64,9.13,9.13,0,0,1,.05.93V172.7a9.2,9.2,0,0,1-.05.93,23.94,23.94,0,0,0-17.42,0,9.2,9.2,0,0,1-.05-.93V145.49a9.06,9.06,0,0,1,.05-.93A24,24,0,0,0,455.09,146.2Zm9,99.42a9.07,9.07,0,0,1-18.1-.93V196.07a9.19,9.19,0,0,1,9.08-9.08,9.3,9.3,0,0,1,9.07,9.08V244.7A8.07,8.07,0,0,1,464.11,245.62ZM446,81h18.15v41.13a9.08,9.08,0,1,1-18.15,0Zm-32.84,91.7V145.49A42,42,0,0,1,431,111.2v10.92a24.21,24.21,0,0,0,3.2,12,23.63,23.63,0,0,0-2.89,11.36V172.7a23.63,23.63,0,0,0,2.89,11.36,24.16,24.16,0,0,0-3.2,12V207A42,42,0,0,1,413.17,172.7Zm0,95.36A42,42,0,0,1,431,233.77V244.7a24.3,24.3,0,0,0,3.2,12,23.63,23.63,0,0,0-2.89,11.36V292.3a24.12,24.12,0,0,0-4.79,3.47l-11.76,11a41.77,41.77,0,0,1-1.61-11.47Zm-73.76,85.22L358.57,334a41.6,41.6,0,0,1,29.74-12.36,42.12,42.12,0,0,1,9.39,1.06L391,328.95a24.23,24.23,0,0,0-6.78,11.16,23.51,23.51,0,0,0-12.75,6.65s-19.75,19.92-20,20.23h0a24,24,0,0,0-8.71-1.64H331.06A41.62,41.62,0,0,1,339.41,353.29Zm-97-5.79h27.21a42,42,0,0,1,34.29,17.84h-9.84a24.14,24.14,0,0,0-12.55,3.54,23.7,23.7,0,0,0-11.9-3.22H242.39a23.71,23.71,0,0,0-11.9,3.22A24.09,24.09,0,0,0,218,365.34h-9.84A42,42,0,0,1,242.39,347.5ZM123.69,321.61A41.6,41.6,0,0,1,153.43,334l19.17,19.31a41.66,41.66,0,0,1,8.34,12.05H169.32a24.24,24.24,0,0,0-8.71,1.64l0,0c-.28-.31-.56-.62-.86-.92l-19.17-19.31a23.48,23.48,0,0,0-12.75-6.65A24.33,24.33,0,0,0,121,328.95l-6.72-6.27A42.35,42.35,0,0,1,123.69,321.61ZM98.83,268.06v27.21a41.77,41.77,0,0,1-1.61,11.47l-11.76-11a24.56,24.56,0,0,0-4.79-3.47V268.06a23.63,23.63,0,0,0-2.89-11.36,24.15,24.15,0,0,0,3.2-12V233.77A42,42,0,0,1,98.83,268.06Zm0-122.57V172.7A42,42,0,0,1,81,207V196.07a24.2,24.2,0,0,0-3.2-12,23.62,23.62,0,0,0,2.89-11.36V145.49a23.62,23.62,0,0,0-2.89-11.36,24.16,24.16,0,0,0,3.2-12V111.2A42,42,0,0,1,98.83,145.49ZM47.84,81H66v41.13a9.08,9.08,0,1,1-18.15,0ZM15,172.7V145.49a42,42,0,0,1,17.84-34.29v10.92a24.28,24.28,0,0,0,3.2,12,23.62,23.62,0,0,0-2.89,11.36V172.7A23.63,23.63,0,0,0,36,184.06c-.1.17-.18.34-.27.51a24.34,24.34,0,0,0-2.93,11.5V207A42,42,0,0,1,15,172.7ZM56.91,337.19A42,42,0,0,1,15,295.27V268.06a42,42,0,0,1,17.84-34.29V244.7a24.15,24.15,0,0,0,3.2,12,23.63,23.63,0,0,0-2.89,11.36v27.21a23.81,23.81,0,0,0,11.94,20.59A24.43,24.43,0,0,0,52.61,331l6.59,6.15C58.44,337.17,57.68,337.19,56.91,337.19Zm85.93,87.52a41.62,41.62,0,0,1-29.75-12.36L93.93,393a41.79,41.79,0,0,1-11.86-34.56l6.09,5.69a24.19,24.19,0,0,0,12.79,6.19,23.66,23.66,0,0,0,5.87,9.9L126,399.55a23.56,23.56,0,0,0,16.84,7,23.83,23.83,0,0,0,8.25-1.47l.07.07a24.36,24.36,0,0,0,18.19,8.33h2.08A41.64,41.64,0,0,1,142.85,424.71Zm126.76,6.62H242.39a42,42,0,0,1-34.29-17.84H218a25.89,25.89,0,0,0,6.5-.91,24,24,0,0,0,6-2.62,23.73,23.73,0,0,0,11.9,3.22h27.21A23.75,23.75,0,0,0,281.5,410,24.1,24.1,0,0,0,294,413.49h9.89A42,42,0,0,1,269.61,431.33ZM418.07,393,398.9,412.34a42,42,0,0,1-58.31,1.15,29.33,29.33,0,0,0,9.79-1.27,24.46,24.46,0,0,0,10.48-7.06l.07-.07A23.79,23.79,0,0,0,386,399.55l19.17-19.31a23.68,23.68,0,0,0,5.87-9.9l.26-.05a24.21,24.21,0,0,0,12.52-6.14l6.09-5.69A41.8,41.8,0,0,1,418.07,393Zm78.93-125v27.21a42,42,0,0,1-41.91,41.92c-.77,0-1.53,0-2.29-.06l6.59-6.15a24.38,24.38,0,0,0,7.52-15.11,23.81,23.81,0,0,0,11.94-20.59V268.06A23.63,23.63,0,0,0,476,256.7a24.2,24.2,0,0,0,3.2-12V233.77A42,42,0,0,1,497,268.06Zm0-95.36A42,42,0,0,1,479.16,207V196.07a24.25,24.25,0,0,0-3.2-12,23.63,23.63,0,0,0,2.89-11.36V145.49A23.62,23.62,0,0,0,476,134.14a24.21,24.21,0,0,0,3.2-12V111.21A42,42,0,0,1,497,145.49Z" transform="translate(0 -66)"/></svg>