<?xml version="1.0"?>
<svg xmlns="http://www.w3.org/2000/svg" id="Capa_1" enable-background="new 0 0 512 512" height="512px" viewBox="0 0 512 512" width="512px"><path d="m474.999 58.221c-32.044-17.505-117.531-58.221-218.999-58.221s-186.955 40.716-218.999 58.221c-7.074 3.865-9.829 12.63-6.238 19.847l211.808 425.615c2.536 5.096 7.737 8.317 13.429 8.317s10.893-3.221 13.429-8.317l211.808-425.615c3.591-7.217.836-15.982-6.238-19.847zm-218.999-28.221c83.295 0 155.329 29.605 191.827 47.867l-13.399 26.925c-30.888-15.408-103.428-51.756-103.428-17.465v47.673c0 8.271-6.729 15-15 15s-15-6.729-15-15v-58.562c0-7.737-5.885-14.205-13.588-14.933-10.56-.999-21.129-1.505-31.412-1.505s-20.852.506-31.412 1.505c-7.703.728-13.588 7.196-13.588 14.933v28.562c0 8.271-6.729 15-15 15s-15-6.729-15-15v-17.673c0-9.84-9.337-17.024-18.848-14.498-35.747 9.487-65.241 22.317-84.58 31.964l-13.399-26.926c36.498-18.262 108.532-47.867 191.827-47.867zm-37.032 358.918-26.237-52.722c5.172-3.992 11.523-6.196 18.269-6.196 16.542 0 30 13.458 30 30 0 13.783-9.347 25.418-22.032 28.918zm37.032 74.414-23.545-47.313c22.516-8.653 38.545-30.493 38.545-56.019 0-33.084-26.916-60-60-60-11.306 0-22.3 3.274-31.732 9.145l-88.33-177.496c14.488-7.234 35.156-16.412 60.12-24.345 1.203 23.747 20.901 42.696 44.942 42.696 24.813 0 45-20.187 45-45v-14.615c10.101-.511 19.899-.511 30 0v44.615c0 24.813 20.187 45 45 45s45-20.187 45-45v-27.677c24.938 7.929 45.585 17.099 60.062 24.327l-28.547 57.363c-9.383-5.788-20.295-9.013-31.515-9.013-33.084 0-60 26.916-60 60 0 25.436 15.918 47.211 38.31 55.926zm96.786-194.485c-12.56-3.582-21.786-15.153-21.786-28.847 0-16.542 13.458-30 30-30 6.657 0 12.932 2.144 18.067 6.036z" fill="#FFFFFF"/><path d="m226 180c-24.813 0-45 20.187-45 45s20.187 45 45 45 45-20.187 45-45-20.187-45-45-45zm0 60c-8.271 0-15-6.729-15-15s6.729-15 15-15 15 6.729 15 15-6.729 15-15 15z" fill="#FFFFFF"/></svg>
