<?xml version="1.0"?>
<svg xmlns="http://www.w3.org/2000/svg" height="512px" viewBox="0 0 512 512.00115" width="512px"><path d="m491.949219 330.019531c11.046875 0 20-8.953125 20-20v-89.464843c0-35.46875-9.894531-70.144532-28.617188-100.269532-18.71875-30.128906-45.425781-54.355468-77.226562-70.0625-.472657-.234375-.957031-.449218-1.445313-.644531l-10.285156-4.105469c-.394531-.15625-.792969-.273437-1.1875-.40625-2.761719-3.886718-5.957031-7.550781-9.574219-10.953125-17.949219-16.882812-46.109375-27.667969-83.695312-32.050781-18.617188-2.171875-34.882813-2.183594-43.234375-1.9804688-.144532-.0039062-.28125-.0273437-.425782-.0273437-.445312-.0078125-4.089843-.0078125-4.5625 0-.148437 0-.289062.0234375-.433593.0273437-8.355469-.2031252-24.617188-.1875002-43.230469 1.9804688-37.585938 4.382812-65.742188 15.164062-83.691406 32.046875-4.023438 3.78125-7.503906 7.890625-10.460938 12.269531-.882812.335938-1.753906.714844-2.601562 1.183594l-13.550782 7.527344c-60.28125 33.488281-97.726562 97.125-97.726562 166.078125v188.84375c0 33.082031 26.914062 59.992187 59.996094 59.992187h29.996094v22c0 11.042969 8.953124 19.996094 19.996093 19.996094h291.972657c11.042968 0 19.996093-8.953125 19.996093-19.996094v-22h29.996094c33.082031 0 59.996094-26.910156 59.996094-59.992187 0-11.046875-8.953125-20-20-20-11.042969 0-19.996094 8.953125-19.996094 20 0 11.027343-8.972656 19.996093-20 19.996093h-29.996094v-137.984374c0-33.082032-26.914062-59.992188-59.992187-59.992188h-26c-11.042969 0-19.996094 8.953125-19.996094 19.996094 0 11.042968 8.953125 20 19.996094 20h26c11.027344 0 19.996094 8.96875 19.996094 19.996094v19.996093h-45.996094c-11.042969 0-19.996094 8.953125-19.996094 20 0 11.042969 8.953125 19.996094 19.996094 19.996094h45.996094v39.996094h-45.996094c-11.042969 0-19.996094 8.953125-19.996094 20 0 11.042969 8.953125 19.996093 19.996094 19.996093h45.996094v39.996094h-105.988282v-250.035156c13.554688-3.792969 34.339844-10.808594 55.242188-22.476562 45.382812-25.335938 70.894531-60.964844 74.328125-103.488282 41.390625 27.617188 66.410156 73.75 66.410156 124.554688v89.464844c0 11.042968 8.953125 19.996093 19.996094 19.996093zm-237.9375-230.796875c-15.890625-5.785156-49.03125-21.53125-49.03125-42.097656 0-1.804688.359375-3.207031 2.207031-5.03125 7.550781-7.472656 28.207031-11.257812 42.960938-11.9375.996093.09375 6.671874.097656 7.671874.003906 14.71875.6875 35.398438 4.464844 42.941407 11.933594 1.847656 1.824219 2.207031 3.226562 2.207031 5.03125 0 19.117188-30.066406 35.328125-48.957031 42.097656zm-102.300781-35.949218c3.707031-3.496094 8.257812-6.488282 13.367187-9.050782-.054687.960938-.09375 1.929688-.09375 2.902344 0 17.496094 7.667969 42.960938 44.183594 64.933594 9.75 5.863281 19.472656 10.191406 26.808593 13.070312v44.96875c-34.3125-11.019531-93.988281-38.214844-93.988281-94.089844-.003906-9.257812 3.089844-16.484374 9.722657-22.734374zm-21.722657 408.730468v-39.996094h45.996094c11.042969 0 19.996094-8.953124 19.996094-19.996093 0-11.046875-8.953125-20-19.996094-20h-45.996094v-39.996094h45.996094c11.042969 0 19.996094-8.953125 19.996094-19.996094 0-11.046875-8.953125-20-19.996094-20h-45.996094v-19.996093c0-11.027344 8.96875-20 19.996094-20h26c11.042969 0 19.996094-8.953126 19.996094-19.996094 0-11.046875-8.953125-20-19.996094-20h-26c-33.078125 0-59.992187 26.914062-59.992187 59.996094v137.984374h-29.996094c-11.027344 0-20-8.96875-20-19.996093v-188.84375c0-48.691407 23.667968-94.015625 62.71875-121.957031 4.585937 41.238281 30.898437 75.765624 76.800781 100.433593 21.285156 11.441407 42.449219 18.386719 56.460937 22.203125v250.15625zm145.984375-291.90625v-46.589844c6.695313-2.800781 14.742188-6.597656 22.808594-11.449218 36.519531-21.972656 44.183594-47.4375 44.183594-64.929688 0-.976562-.035156-1.945312-.09375-2.902344 5.109375 2.558594 9.660156 5.550782 13.367187 9.046876 6.636719 6.25 9.726563 13.476562 9.726563 22.734374 0 55.878907-57.09375 83.0625-89.992188 94.089844zm0 0" fill="#FFFFFF"/></svg>
