<?xml version="1.0"?>
<svg xmlns="http://www.w3.org/2000/svg" xmlns:xlink="http://www.w3.org/1999/xlink" version="1.1" id="Layer_1" x="0px" y="0px" viewBox="0 0 507.803 507.803" style="enable-background:new 0 0 507.803 507.803;" xml:space="preserve" width="512px" height="512px"><g><g transform="translate(1 1)">
	<g>
		<g>
			<path d="M473.523,309.557L341.065,177.099c9.958-17.371,14.95-36.879,14.95-56.394c0-62.112-51.2-113.312-113.311-113.312     c-14.893,0-29.124,2.65-42.696,8.521C182.298,5.189,161.569-1,139.464-1C74.835-1,21.956,51.879,21.956,116.508     c0,43.265,23.699,81.26,58.754,101.654v238.28c0,2.518,0.839,5.036,3.357,6.715l50.361,41.967     c0.839,0.839,3.357,1.679,5.036,1.679s4.197-0.839,4.197-1.679l50.361-41.967c2.518-1.679,3.357-4.197,3.357-6.715v-16.787     c0-2.518-0.839-4.197-2.518-5.875l-27.698-27.698l23.502-23.502c3.357-3.357,3.357-8.393,0-11.751l-23.502-23.502l6.7-6.7     l134.31,135.119c6.715,5.875,14.269,9.233,22.662,10.072c0,0,0.839,0,1.679,0c8.393,0,15.948-2.518,20.984-8.393l121.705-122.544     C487.792,343.131,486.113,322.148,473.523,309.557z M242.704,24.18c52.879,0,96.525,43.646,96.525,96.525     c0,15.284-3.696,30.561-10.645,44.179c-9.991-8.475-22.037-13.534-34.679-15.641l-39.752-6.023     c1.976-8.904,2.821-17.808,2.821-26.711c0-35.221-15.707-66.949-40.459-88.534C225.05,25.517,233.71,24.18,242.704,24.18z      M38.743,116.508c0-55.397,45.325-100.721,100.721-100.721s100.721,45.325,100.721,100.721c0,8.044-0.788,16.087-3.068,24.13     l-54.007-8.183c-11.899-1.322-23.268,1.017-32.486,6.984c-1.26-6.358-1.927-12.901-1.927-19.574c0-1.556,0-3.111,0-4.667     c14.012-4.037,24.341-16.999,24.341-32.264c0-18.466-15.108-33.574-33.574-33.574s-33.574,15.108-33.574,33.574     c0,15.627,10.822,28.847,25.341,32.543c-0.155,1.677-0.16,3.317-0.16,5.228c0,11.744,1.771,23.248,5.111,34.199     c-3.686,6.535-5.726,13.98-5.738,21.836c-0.056,2.818,0.143,5.69,0.627,8.594l3.147,19.933l1.812,11.958     C82.347,215.507,38.743,171.039,38.743,116.508z M156.251,82.934c0,4.636-1.907,8.847-4.972,11.893     c1.199-4.91,2.791-9.683,4.781-14.283C156.173,81.327,156.251,82.121,156.251,82.934z M133.75,98.692     c-6.437-2.353-11.072-8.532-11.072-15.758c0-9.233,7.554-16.787,16.787-16.787c1.726,0,3.393,0.265,4.963,0.754     C139.463,76.91,135.9,87.581,133.75,98.692z M173.877,376.705l-23.502,23.502c-3.357,3.357-3.357,8.393,0,11.751l31.056,31.056     v9.233l-41.967,35.252l-41.967-35.252h0.839V230.659c5.078,2.031,10.433,3.646,15.948,4.858v201.621     c0,5.036,3.357,8.393,8.393,8.393s8.393-4.197,8.393-8.393V237.918c2.705,0.188,5.421,0.286,8.139,0.292l8.648,57.078     c0.229,1.371,0.513,2.732,0.823,4.088l0.016,0.109c1.679,10.911,5.875,21.823,12.59,31.056l-10.911,10.911     c-3.357,3.357-3.357,8.393,0,11.751L173.877,376.705z M463.451,343.131L341.746,464.836c-2.518,2.518-5.875,3.357-10.072,3.357     s-8.393-1.679-11.751-5.036L180.592,323.826c-8.393-8.393-14.269-19.305-15.948-31.056l-10.152-67.003     c0.077-0.862,0.08-1.762,0.08-2.662l-5.771-40.393c10.029,16.102,24.014,29.863,41.174,39.798     c-0.096,1.026-0.151,2.063-0.151,3.113c0,18.466,15.108,33.574,33.574,33.574c18.466,0,33.574-15.108,33.574-33.574     c0-18.466-15.108-33.574-33.574-33.574c-10.884,0-20.598,5.251-26.742,13.343c-18.559-11.619-32.579-28.252-40.528-47.625     c0.042-0.042,0.081-0.089,0.123-0.131c2.037-2.037,4.485-3.762,7.19-5.089c3.765-1.641,7.803-2.465,12.115-2.465     c1.679,0,3.357,0,4.197,0l10.722,1.625l51.39,8.448c0.927,0,1.81-0.087,2.647-0.26l46.035,6.975     c11.751,1.679,22.662,7.554,31.056,15.948l140.17,139.331C467.648,328.023,468.487,338.095,463.451,343.131z M235.3,237.428     c-3.046,3.071-7.261,4.982-11.902,4.982c-7.475,0-13.846-4.953-16.002-11.737C216.395,234.008,225.784,236.31,235.3,237.428z      M212.099,213.262c2.99-2.737,6.952-4.426,11.3-4.426c7.28,0,13.5,4.705,15.812,11.219     C229.989,219.099,221.019,216.835,212.099,213.262z" data-original="#000000" class="active-path" data-old_color="#000000" fill="#333333"/>
			<path d="M380.356,362.436l-53.718,53.718c-3.357,3.357-3.357,8.393,0,11.751c1.679,1.679,3.357,2.518,5.875,2.518     c2.518,0,4.197-0.839,5.875-2.518l53.718-53.718c3.357-3.357,3.357-8.393,0-11.751     C388.75,359.079,383.714,359.079,380.356,362.436z" data-original="#000000" class="active-path" data-old_color="#000000" fill="#333333"/>
			<path d="M348.461,362.436c-3.357-3.357-8.393-3.357-11.751,0l-35.253,35.253c-3.357,3.357-3.357,8.393,0,11.751     c1.679,1.679,3.357,2.518,5.875,2.518s4.197-0.839,5.875-1.679l35.252-36.092C351.818,370.829,351.818,365.793,348.461,362.436z" data-original="#000000" class="active-path" data-old_color="#000000" fill="#333333"/>
			<path d="M341.746,320.469c-3.357-3.357-8.393-3.357-11.751,0l-53.718,53.718c-3.357,3.357-3.357,8.393,0,11.751     c1.679,1.679,3.357,2.518,5.875,2.518c2.518,0,4.197-0.839,5.875-2.518l53.718-53.718     C345.104,328.862,345.104,323.826,341.746,320.469z" data-original="#000000" class="active-path" data-old_color="#000000" fill="#333333"/>
		</g>
	</g>
</g></g> </svg>
