<?xml version="1.0" encoding="iso-8859-1"?>
<!-- Generator: Adobe Illustrator 18.0.0, SVG Export Plug-In . SVG Version: 6.00 Build 0)  -->
<!DOCTYPE svg PUBLIC "-//W3C//DTD SVG 1.1//EN" "http://www.w3.org/Graphics/SVG/1.1/DTD/svg11.dtd">
<svg version="1.1" id="Capa_1" xmlns="http://www.w3.org/2000/svg" xmlns:xlink="http://www.w3.org/1999/xlink" x="0px" y="0px"
	 viewBox="0 0 276.901 276.901" style="enable-background:new 0 0 276.901 276.901;" xml:space="preserve">
<path d="M15.976,24.97v129.456c0,67.533,54.942,122.476,122.476,122.476s122.475-54.942,122.475-122.476V24.97
	c0-7.54-3.357-14.595-9.212-19.356c-5.866-4.769-13.459-6.621-20.835-5.081c-25.181,5.265-58.006,8.164-92.428,8.164
	c-34.423,0-67.248-2.899-92.429-8.164C44.313,0.176,42.59,0,40.882,0C35.21,0,29.683,1.937,25.183,5.597
	C19.331,10.356,15.976,17.417,15.976,24.97z M160.238,90.281c9.003-9.003,20.974-13.962,33.706-13.962
	c12.732,0,24.703,4.959,33.706,13.962c5.857,5.858,5.856,15.355-0.001,21.214c-2.929,2.928-6.768,4.393-10.606,4.393
	c-3.839,0-7.678-1.465-10.607-4.394c-3.336-3.337-7.772-5.175-12.491-5.175c-4.719,0-9.155,1.838-12.491,5.175
	c-5.859,5.857-15.354,5.858-21.214,0.001C154.382,105.637,154.381,96.14,160.238,90.281z M166.581,174.9
	c5.857-5.857,15.355-5.859,21.213,0c5.857,5.857,5.858,15.354,0,21.213c-13.18,13.181-30.703,20.439-49.343,20.439
	c-18.641,0-36.164-7.259-49.344-20.439c-5.858-5.858-5.858-15.355,0-21.213c5.858-5.857,15.355-5.859,21.213,0
	c7.514,7.515,17.504,11.652,28.131,11.652C149.077,186.553,159.067,182.415,166.581,174.9z M47.572,90.281
	c18.586-18.588,48.825-18.586,67.411,0c5.858,5.857,5.858,15.355,0,21.213c-2.929,2.929-6.768,4.394-10.606,4.394
	c-3.839,0-7.678-1.465-10.606-4.394c-6.889-6.889-18.097-6.888-24.985,0c-5.858,5.857-15.356,5.857-21.213,0
	C41.714,105.637,41.714,96.139,47.572,90.281z"/>
<g>
</g>
<g>
</g>
<g>
</g>
<g>
</g>
<g>
</g>
<g>
</g>
<g>
</g>
<g>
</g>
<g>
</g>
<g>
</g>
<g>
</g>
<g>
</g>
<g>
</g>
<g>
</g>
<g>
</g>
</svg>
