<?xml version="1.0"?>
<svg xmlns="http://www.w3.org/2000/svg" height="512px" viewBox="-107 1 511 511.999" width="512px"><path d="m16.398438 475.699219v36.300781h101.964843v-37.476562c-14.96875 10.417968-32.757812 16.472656-51.839843 16.472656-18.355469 0-35.523438-5.597656-50.125-15.296875zm0 0" fill="#FFFFFF"/><path d="m181.886719 476.339844v35.660156h101.964843v-38.167969c-15.167968 10.84375-33.328124 17.164063-52.828124 17.164063-17.945313 0-34.75-5.355469-49.136719-14.65625zm0 0" fill="#FFFFFF"/><path d="m.5 209.046875v177.996094c0 40.738281 29.617188 73.882812 66.023438 73.882812 36.402343 0 66.019531-33.144531 66.019531-73.882812v-187.574219c0-8.933594 7.28125-16.203125 16.226562-16.203125 8.949219 0 16.230469 7.269531 16.230469 16.203125v187.574219c0 40.738281 29.617188 73.882812 66.019531 73.882812 36.40625 0 66.023438-33.144531 66.023438-73.882812v-178.183594c0-43.5625-8.808594-87.277344-25.589844-127.53125h-245.292969c-17.027344 40.59375-25.660156 83.5-25.660156 127.71875zm0 0" fill="#FFFFFF"/><path d="m23.332031 0h250.878907v51.253906h-250.878907zm0 0" fill="#FFFFFF"/></svg>
