<?xml version="1.0"?>
<svg xmlns="http://www.w3.org/2000/svg" height="512px" viewBox="0 0 64 64" width="512px" class=""><g><path d="m33.583 13.059c-.466-2.001-1.203-3.059-1.583-3.059s-1.117 1.058-1.583 3.059c.523-.038 1.053-.059 1.583-.059s1.06.021 1.583.059z" data-original="#000000" class="active-path" data-old_color="#000000" fill="#232323"/><path d="m29.1 23.361a12.985 12.985 0 0 1 -.77-2.687 12.985 12.985 0 0 1 -2.687-.77 7.039 7.039 0 0 0 3.457 3.457z" data-original="#000000" class="active-path" data-old_color="#000000" fill="#232323"/><path d="m28 17c0-.53.021-1.06.059-1.583-2.001.466-3.059 1.203-3.059 1.583s1.058 1.117 3.059 1.583c-.038-.523-.059-1.053-.059-1.583z" data-original="#000000" class="active-path" data-old_color="#000000" fill="#232323"/><path d="m29.1 10.639a7.039 7.039 0 0 0 -3.461 3.461 12.985 12.985 0 0 1 2.687-.77 12.985 12.985 0 0 1 .774-2.691z" data-original="#000000" class="active-path" data-old_color="#000000" fill="#232323"/><path d="m32 19c.686 0 1.318-.035 1.908-.092.057-.59.092-1.222.092-1.908s-.035-1.318-.092-1.908c-.59-.057-1.222-.092-1.908-.092s-1.318.035-1.908.092c-.057.59-.092 1.222-.092 1.908s.035 1.318.092 1.908c.59.057 1.222.092 1.908.092z" data-original="#000000" class="active-path" data-old_color="#000000" fill="#232323"/><path d="m38.361 19.9a12.985 12.985 0 0 1 -2.687.77 12.985 12.985 0 0 1 -.77 2.687 7.039 7.039 0 0 0 3.457-3.457z" data-original="#000000" class="active-path" data-old_color="#000000" fill="#232323"/><path d="m30.417 20.941c.466 2.001 1.203 3.059 1.583 3.059s1.117-1.058 1.583-3.059c-.523.038-1.053.059-1.583.059s-1.06-.021-1.583-.059z" data-original="#000000" class="active-path" data-old_color="#000000" fill="#232323"/><path d="m36 17c0 .53-.021 1.06-.059 1.583 2.001-.466 3.059-1.203 3.059-1.583s-1.058-1.117-3.059-1.583c.038.523.059 1.053.059 1.583z" data-original="#000000" class="active-path" data-old_color="#000000" fill="#232323"/><path d="m38.361 14.1a7.039 7.039 0 0 0 -3.461-3.461 12.985 12.985 0 0 1 .77 2.687 12.985 12.985 0 0 1 2.691.774z" data-original="#000000" class="active-path" data-old_color="#000000" fill="#232323"/><path d="m50 4h-39v56h39a3 3 0 0 0 3-3v-50a3 3 0 0 0 -3-3zm-18 4a9 9 0 1 1 -9 9 9.01 9.01 0 0 1 9-9zm11 20v2h-2v-2zm-4 0v2h-14v-2zm-18 0h2v2h-2zm-8-21a1 1 0 0 1 1-1h6v2h-5v5h-2zm7 51h-6a1 1 0 0 1 -1-1v-6h2v5h5zm31-3a3 3 0 0 1 -3 3h-4v-2h4a1 1 0 0 0 1-1v-4h2zm0-8a1 1 0 0 1 -1 1h-36a1 1 0 0 1 -1-1v-12a1 1 0 0 1 1-1h36a1 1 0 0 1 1 1zm0-34h-2v-4a1 1 0 0 0 -1-1h-4v-2h4a3 3 0 0 1 3 3z" data-original="#000000" class="active-path" data-old_color="#000000" fill="#232323"/><path d="m15 36h34v10h-34z" data-original="#000000" class="active-path" data-old_color="#000000" fill="#232323"/></g> </svg>
