<?xml version="1.0"?>
<svg xmlns="http://www.w3.org/2000/svg" id="Capa_1" enable-background="new 0 0 512 512" height="512px" viewBox="0 0 512 512" width="512px"><path d="m502 276h-15.28c-37.011 0-77.383 17.381-105.357 45.356-9.453 9.443-22.011 14.644-35.363 14.644-27.57 0-50-22.43-50-50 0-3.2-1.531-6.207-4.119-8.088-2.589-1.881-5.92-2.41-8.965-1.424-4.838 1.569-176.306 57.162-219.158 71.056-38.136 12.711-63.758 48.259-63.758 88.456v66c0 5.523 4.478 10 10 10h201c5.522 0 10-4.477 10-10s-4.478-10-10-10h-191v-46h472v46h-191c-5.522 0-10 4.477-10 10s4.478 10 10 10h201c5.522 0 10-4.477 10-10 0-3.866 0-205.169 0-216 0-5.523-4.478-10-10-10zm-10 150h-69.353c4.528-36.128 33.225-64.824 69.353-69.353zm-146-70c18.69 0 36.269-7.279 49.501-20.499 23.995-23.996 59.801-39.501 91.219-39.501h5.28v40.499c-47.173 4.705-84.796 42.329-89.501 89.501h-107.225c-4.869-33.877-34.072-60-69.274-60h-50c-15.024 0-26.872-10.844-29.452-24.281l130.727-42.378c6.246 32.239 34.688 56.659 68.725 56.659zm-275.996 10.542 57.429-18.617c5.188 21.305 24.48 38.075 48.567 38.075h50c24.146 0 44.348 17.205 48.994 40h-254.314c3.741-27.35 22.645-50.564 49.324-59.458z" fill="#FFFFFF"/><path d="m448.164 71.517c-194.385-63.032-33.929-11.004-219.08-71.03-3.046-.987-6.377-.457-8.965 1.424-2.588 1.882-4.119 4.889-4.119 8.089 0 27.57-22.43 50-50 50-13.352 0-25.91-5.201-35.358-14.641-27.979-27.978-68.351-45.359-105.362-45.359h-15.28c-5.522 0-10 4.477-10 10v216c0 5.523 4.478 10 10 10h201c5.522 0 10-4.477 10-10s-4.478-10-10-10h-191v-46h472v46h-191c-5.522 0-10 4.477-10 10s4.478 10 10 10h201c5.522 0 10-4.477 10-10v-66c0-40.197-25.622-75.745-63.836-88.483zm-422.884-51.517c31.418 0 67.224 15.505 91.223 39.504 13.228 13.217 30.807 20.496 49.497 20.496 34.037 0 62.479-24.42 68.725-56.659l130.728 42.379c-2.581 13.436-14.43 24.28-29.453 24.28h-50c-35.202 0-64.406 26.123-69.274 60h-107.225c-4.705-47.173-42.328-84.796-89.501-89.501v-40.499zm-5.28 60.647c36.128 4.529 64.824 33.225 69.353 69.353h-69.353zm217.006 69.353c4.646-22.795 24.847-40 48.994-40h50c24.081 0 43.38-16.766 48.568-38.074l57.35 18.591c26.749 8.916 45.66 32.133 49.402 59.483z" fill="#FFFFFF"/><circle cx="256" cy="502" r="10" fill="#FFFFFF"/><circle cx="256" cy="226" r="10" fill="#FFFFFF"/></svg>
