<svg xmlns="http://www.w3.org/2000/svg" width="17" height="25" viewBox="0 0 17 25"><defs><clipPath><path fill="none" d="M0 0h17v25h-17z"/></clipPath><clipPath id="a"><path d="M12.846 10.075v-3.359a4.271 4.271 0 0 0-4.246-4.291h-.189a4.271 4.271 0 0 0-4.25 4.291v3.358zm2.4.05a2.234 2.234 0 0 1 1.754 2.188v10.262a2.228 2.228 0 0 1-2.217 2.239h-12.566a2.228 2.228 0 0 1-2.217-2.239v-10.262a2.235 2.235 0 0 1 1.759-2.191v-3.406a6.685 6.685 0 0 1 6.652-6.716h.189a6.685 6.685 0 0 1 6.652 6.716z" fill="none"/></clipPath></defs><path fill="#fff" d="M-1.848-1.866h20.696v28.545h-20.696z" clip-path="url(#a)"/></svg>