<svg xmlns="http://www.w3.org/2000/svg" height="23" width="23" viewBox="0 0 22.999999 22.999999"><path d="M8.919 11.591c.623.699 1.184 1.21 1.179 1.205-.005-.004.487.568 1.17 1.213.55.518 1.161 1.03 1.838 1.516.768.552 1.969.623 2.621.243.652-.38 1.907-1.15 2.845-.954.789.165 1.835.718 3.095 2.138 2.97 3.351.309 4.397-1.534 5.748-1.845 1.35-7.933-1.994-13.509-7.444-5.576-5.449-7.676-11.086-6.132-12.746 1.544-1.66 2.831-4.119 6.112-1.045 1.391 1.303 1.891 2.342 2.006 3.105.137.909-.758 2.049-1.202 2.642-.444.594-.457 1.744.063 2.516.458.681.946 1.301 1.448 1.862z" fill="#fff"/></svg>