<svg xmlns="http://www.w3.org/2000/svg" xmlns:xlink="http://www.w3.org/1999/xlink" width="120" height="120" viewBox="0 0 120 120"><title>Phone</title><defs><linearGradient x1="50%" y1="0%" x2="50%" y2="100%" id="a"><stop stop-color="#91FC8A" offset="0%"/><stop stop-color="#00DD35" offset="100%"/></linearGradient><rect id="b" width="120" height="120" rx="28"/></defs><use fill="url(#a)" xlink:href="#b"/><path d="M44.82 74.492l9.191-9.191 7.07 7.07c4.306 4.306 7.777 5.656 14.14.707 1.414-1.414 3.888-3.181 6.716-1.768l13.433 9.191c3.888 3.181 4.206 4.919 3.181 7.423-6.359 15.543-26.512 13.079-53.732-13.433zm0 0c-26.512-27.22-28.976-47.373-13.433-53.732 2.505-1.024 4.242-.707 7.423 3.181l9.191 13.433c1.414 2.828-.353 5.303-1.768 6.716-4.949 6.363-3.599 9.834.707 14.14l7.07 7.07-9.191 9.191z" fill="#FFF"/></svg>