<svg xmlns="http://www.w3.org/2000/svg" viewBox="0 0 45 45" height="45" width="45"><rect rx="12.273" height="45" width="45" fill="#fff"/><path transform="matrix(1.023 0 0 1.023 -197.55 -364.911)" d="M211.99 382.65v-8.55l8.166 4.29zm17.928-10.033a6.623 6.623 0 0 0-1.2-3.021 4.3 4.3 0 0 0-3.028-1.289c-4.23-.307-10.573-.307-10.573-.307h-.017s-6.343 0-10.572.308a4.3 4.3 0 0 0-3.028 1.292 6.61 6.61 0 0 0-1.2 3.021 46.369 46.369 0 0 0-.3 4.926v2.309a46.336 46.336 0 0 0 .3 4.925 6.609 6.609 0 0 0 1.2 3.021 5.1 5.1 0 0 0 3.332 1.3c2.418.234 10.275.306 10.275.306s6.35-.009 10.579-.318a4.305 4.305 0 0 0 3.028-1.289 6.613 6.613 0 0 0 1.2-3.021 46.318 46.318 0 0 0 .3-4.925v-2.309a46.369 46.369 0 0 0-.3-4.926z" fill="#f82322"/></svg>