<svg xmlns="http://www.w3.org/2000/svg" width="16" height="12" viewBox="0 0 16 12"><defs><clipPath><path fill="none" d="M0 0h16v12h-16z"/></clipPath><clipPath id="a"><path d="M12.606 3.875a.375.375 0 1 0-.364-.375.369.369 0 0 0 .364.375zm-10.667-3.125h1.213a.246.246 0 0 1 .242.25v.5h-1.694v-.5a.246.246 0 0 1 .239-.25zm6.061 10a3.694 3.694 0 0 0 3.636-3.75 3.694 3.694 0 0 0-3.636-3.75 3.694 3.694 0 0 0-3.636 3.75 3.694 3.694 0 0 0 3.636 3.75zm0-.75a2.956 2.956 0 0 1-2.909-3 2.955 2.955 0 0 1 2.909-3 2.955 2.955 0 0 1 2.909 3 2.956 2.956 0 0 1-2.909 3zm-6.3-8h2.018a.723.723 0 0 0 .617-.352l.571-.948a1.445 1.445 0 0 1 1.234-.7h3.72a1.444 1.444 0 0 1 1.233.7l.571.942a.723.723 0 0 0 .618.358h2.018a1.478 1.478 0 0 1 1.455 1.5v7a1.478 1.478 0 0 1-1.455 1.5h-12.6a1.478 1.478 0 0 1-1.457-1.5v-7a1.478 1.478 0 0 1 1.457-1.5z" clip-rule="evenodd" fill="none"/></clipPath></defs><path fill="#fff" d="M-1.576-1.875h19.152v15.75h-19.152z" clip-path="url(#a)"/></svg>