<svg xmlns="http://www.w3.org/2000/svg" viewBox="0 0 450 550" height="550" width="450"><path d="M439.311 203.615l-188.03-192.664c-7.124-7.301-15.876-10.95-26.28-10.95-10.589 0-19.258 3.65-25.996 10.95l-188.03 192.664c-7.317 7.497-10.974 16.477-10.974 26.935 0 10.259 3.661 19.134 10.974 26.633l21.66 22.192c6.934 7.496 15.6 11.252 25.996 11.252 10.398 0 19.062-3.757 25.996-11.252l84.917-86.711v322.716c0 10.252 3.609 18.592 10.831 25.009 7.222 6.41 15.936 9.612 26.138 9.612h36.971c10.207 0 18.916-3.203 26.138-9.612 7.222-6.414 10.837-14.757 10.837-25.009v-322.715l84.916 86.711c6.928 7.496 15.593 11.252 25.999 11.252 10.199 0 18.965-3.757 26.278-11.252l21.658-22.192c7.125-7.698 10.69-16.573 10.69-26.633.001-10.26-3.564-19.238-10.689-26.936z" fill="#fff"/></svg>