<svg xmlns="http://www.w3.org/2000/svg" viewBox="0 0 22 22" height="22" width="22"><g transform="translate(-1121 -1657)"><rect fill="#636363" transform="translate(1121 1657)" rx="2" height="22" width="22"/><path d="M1132.001 1660.926a7.074 7.074 0 0 0 0 14.147 1.158 1.158 0 0 0 1.179-1.179 1.1 1.1 0 0 0-.314-.786 1.1 1.1 0 0 1-.314-.786 1.158 1.158 0 0 1 1.176-1.179h1.415a3.941 3.941 0 0 0 3.93-3.93c0-3.458-3.181-6.287-7.072-6.287zm-4.323 7.073a1.179 1.179 0 1 1 1.179-1.179 1.158 1.158 0 0 1-1.178 1.179zm2.358-3.144a1.179 1.179 0 1 1 1.179-1.179 1.158 1.158 0 0 1-1.178 1.18zm3.93 0a1.179 1.179 0 1 1 1.179-1.179 1.158 1.158 0 0 1-1.179 1.18zm2.362 3.144a1.179 1.179 0 1 1 1.179-1.179 1.158 1.158 0 0 1-1.179 1.179z" fill="#fff"/></g></svg>