<?xml version="1.0" encoding="iso-8859-1"?>
<!-- Generator: Adobe Illustrator 16.0.0, SVG Export Plug-In . SVG Version: 6.00 Build 0)  -->
<!DOCTYPE svg PUBLIC "-//W3C//DTD SVG 1.1//EN" "http://www.w3.org/Graphics/SVG/1.1/DTD/svg11.dtd">
<svg version="1.1" id="Capa_1" xmlns="http://www.w3.org/2000/svg" xmlns:xlink="http://www.w3.org/1999/xlink" x="0px" y="0px"
	 width="528.768px" height="528.768px" viewBox="0 0 528.768 528.768" style="enable-background:new 0 0 528.768 528.768;"
	 xml:space="preserve">
<g>
	<path d="M468.18,487.151h-22.032V403.92l0,0v-90.576l0,0v-88.128c0-11.016-9.792-20.808-20.808-20.808h-42.841
		c-9.792-45.288-48.96-79.56-99.144-88.128v-15.912h69.768c11.017,0,20.809-8.568,20.809-20.808V34.272
		c0-11.016-9.792-20.808-20.809-20.808h-70.991C279.684,6.12,272.34,0,262.547,0c-11.016,0-20.808,9.792-20.808,20.808v95.472
		c-50.184,7.344-90.576,42.84-99.144,88.128h-42.84c-11.016,0-20.808,9.792-20.808,20.808v88.128l0,0v90.576l0,0v83.231H59.363
		c-11.016,0-20.808,8.568-20.808,20.809s9.792,20.808,20.808,20.808h410.04c11.017,0,20.809-9.792,20.809-20.808
		C490.212,496.943,480.42,487.151,468.18,487.151z M230.724,246.024h66.096v46.512h-66.096V246.024z M230.724,424.728h66.096v46.512
		h-66.096V424.728z M337.212,424.728h67.319v46.512h-67.319V424.728z M405.756,383.111h-68.544v-50.184h67.319v50.184H405.756z
		 M296.819,332.928v50.184h-66.096v-50.184H296.819z M190.332,383.111h-67.32v-50.184h67.32V383.111z M121.788,424.728h68.544
		v46.512h-67.32v-46.512H121.788z M405.756,292.536h-68.544v-46.512h67.319v46.512H405.756z M121.788,246.024h68.544v46.512h-67.32
		v-46.512H121.788z"/>
</g>
<g>
</g>
<g>
</g>
<g>
</g>
<g>
</g>
<g>
</g>
<g>
</g>
<g>
</g>
<g>
</g>
<g>
</g>
<g>
</g>
<g>
</g>
<g>
</g>
<g>
</g>
<g>
</g>
<g>
</g>
</svg>
